HIERARCHY
ROOT Hips
{
 OFFSET 0.000000 0.000000 0.000000
 CHANNELS 6 Xposition Yposition Zposition Yrotation Xrotation Zrotation
 JOINT Chest
 {
  OFFSET 0.000000 9.588913 -0.003946
  CHANNELS 3 Yrotation Xrotation Zrotation
  JOINT Chest2
  {
   OFFSET 0.000000 9.541882 0.008053
   CHANNELS 3 Yrotation Xrotation Zrotation
   JOINT Chest3
   {
    OFFSET 0.000000 9.501360 0.000000
    CHANNELS 3 Yrotation Xrotation Zrotation
    JOINT Chest4
    {
     OFFSET 0.000000 9.491660 0.000000
     CHANNELS 3 Yrotation Xrotation Zrotation
     JOINT Neck
     {
      OFFSET 0.000000 14.331917 0.000000
      CHANNELS 3 Yrotation Xrotation Zrotation
      JOINT Head
      {
       OFFSET 0.000000 8.884799 0.017034
       CHANNELS 3 Yrotation Xrotation Zrotation
       End Site
       {
        OFFSET 0.000000 16.896195 0.008993
       }
      }
     }
     JOINT RightCollar
     {
      OFFSET -2.923010 9.499495 0.000000
      CHANNELS 3 Yrotation Xrotation Zrotation
      JOINT RightShoulder
      {
       OFFSET -13.795216 0.000000 0.000000
       CHANNELS 3 Yrotation Xrotation Zrotation
       JOINT RightElbow
       {
        OFFSET -30.272209 0.000000 0.000000
        CHANNELS 3 Yrotation Xrotation Zrotation
        JOINT RightWrist
        {
         OFFSET -24.478199 0.000000 0.000000
         CHANNELS 3 Yrotation Xrotation Zrotation
         End Site
         {
          OFFSET -18.090752 0.000000 0.000000
         }
        }
       }
      }
     }
     JOINT LeftCollar
     {
      OFFSET 2.923010 9.499495 0.000000
      CHANNELS 3 Yrotation Xrotation Zrotation
      JOINT LeftShoulder
      {
       OFFSET 13.795216 0.000000 0.000000
       CHANNELS 3 Yrotation Xrotation Zrotation
       JOINT LeftElbow
       {
        OFFSET 30.272209 0.000000 0.000000
        CHANNELS 3 Yrotation Xrotation Zrotation
        JOINT LeftWrist
        {
         OFFSET 24.478199 0.000000 0.000000
         CHANNELS 3 Yrotation Xrotation Zrotation
         End Site
         {
          OFFSET 18.090752 0.000000 0.000000
         }
        }
       }
      }
     }
    }
   }
  }
 }
 JOINT RightHip
 {
  OFFSET -7.826875 0.019532 0.001973
  CHANNELS 3 Yrotation Xrotation Zrotation
  JOINT RightKnee
  {
   OFFSET 0.000000 -40.546152 -0.001885
   CHANNELS 3 Yrotation Xrotation Zrotation
   JOINT RightAnkle
   {
    OFFSET 0.000000 -39.417092 -0.003189
    CHANNELS 3 Yrotation Xrotation Zrotation
    JOINT RightToe
    {
     OFFSET 0.000000 -7.579396 17.243563
     CHANNELS 3 Yrotation Xrotation Zrotation
     End Site
     {
      OFFSET 0.000000 -1.500329 6.694466
     }
    }
   }
  }
 }
 JOINT LeftHip
 {
  OFFSET 7.826875 0.019532 0.001973
  CHANNELS 3 Yrotation Xrotation Zrotation
  JOINT LeftKnee
  {
   OFFSET 0.000000 -40.546152 -0.001885
   CHANNELS 3 Yrotation Xrotation Zrotation
   JOINT LeftAnkle
   {
    OFFSET 0.000000 -39.417092 -0.003189
    CHANNELS 3 Yrotation Xrotation Zrotation
    JOINT LeftToe
    {
     OFFSET 0.000000 -7.579396 17.243563
     CHANNELS 3 Yrotation Xrotation Zrotation
     End Site
     {
      OFFSET 0.000000 -1.500329 6.694466
     }
    }
   }
  }
 }
}
MOTION
Frames: 5
Frame Time: 0.008333
0.000000 87.345680 0.000000 0.000000 -5.767889 0.000000 0.000000 11.653876 0.000000 0.000000 -5.885988 0.000000 0.000000 -0.000000 0.000000 0.000000 -0.000000 0.000000 0.000000 12.528808 0.000000 0.000000 0.711711 0.000000 0.000000 -0.000000 0.000000 0.000000 -0.000000 0.000000 2.309063 -0.000000 0.000000 -2.309063 -0.000000 -0.000000 0.000000 -0.000000 0.000000 0.000000 0.000000 0.000000 -2.309063 0.000000 0.000000 2.309063 -0.000000 0.000000 0.000000 8.520374 0.000000 0.000000 1.905768 0.000000 -0.000000 -4.658254 0.000000 0.000000 -0.000000 0.000000 0.000000 8.520374 0.000000 0.000000 1.905768 0.000000 -0.000000 -4.658254 0.000000 0.000000 -0.000000 0.000000
-21.680849 88.045104 -1.367439 -144.126967 -9.651045 -0.804869 3.928148 3.106977 0.434505 2.215043 1.769260 0.311571 2.770635 2.209587 0.400186 2.215043 1.769260 0.311571 -4.822392 26.738263 2.837879 -5.978526 3.835649 4.236579 -2.164932 3.768084 -2.395030 -7.254037 -1.178170 88.944267 1.897405 -0.933349 0.745656 -2.308110 -1.615108 2.623726 -4.220286 2.850986 -1.849839 2.675446 -1.988856 -87.048271 0.540673 -3.187793 -0.113706 -3.223619 2.691891 2.961163 -6.588234 13.597876 -10.127385 0.046417 2.349687 -0.649793 1.666538 -6.457190 7.240692 0.016520 -0.197169 0.007888 22.015035 14.169528 13.071202 13.172885 -2.780635 -0.281444 0.377692 -2.194600 -9.974972 0.056987 0.264223 0.031073
-21.680591 88.044929 -1.366956 -144.131019 -9.652482 -0.806091 3.931874 3.104433 0.434580 2.217240 1.767897 0.312022 2.773382 2.207879 0.400752 2.217240 1.767897 0.312022 -4.817062 26.738494 2.835465 -5.971968 3.835356 4.232628 -2.162397 3.770608 -2.392689 -7.263215 -1.171766 88.938313 1.908301 -0.923158 0.747514 -2.311135 -1.611345 2.626827 -4.221249 2.855513 -1.846722 2.678047 -1.987647 -87.052205 0.530030 -3.173007 -0.114369 -3.220624 2.702614 2.965486 -6.582218 13.594487 -10.125283 0.048564 2.358285 -0.651342 1.661132 -6.459841 7.245021 0.016300 -0.199108 0.005793 22.021151 14.170222 13.073742 13.180544 -2.780742 -0.282418 0.376972 -2.197567 -9.976128 0.057375 0.265587 0.031188
-21.680390 88.044733 -1.365992 -144.130819 -9.652472 -0.806193 3.932880 3.102370 0.433974 2.218056 1.766693 0.312138 2.774401 2.206373 0.400894 2.218056 1.766693 0.312138 -4.808792 26.738207 2.834634 -5.962484 3.834270 4.229735 -2.155745 3.770941 -2.389665 -7.270135 -1.162593 88.932376 1.920599 -0.920370 0.749348 -2.314285 -1.610827 2.631527 -4.221568 2.857220 -1.846291 2.684502 -1.985934 -87.050884 0.518216 -3.156301 -0.115860 -3.216632 2.715190 2.966270 -6.582176 13.590648 -10.124748 0.050772 2.364380 -0.655155 1.657666 -6.461302 7.251266 0.015636 -0.200924 0.003870 22.024188 14.168161 13.074406 13.187009 -2.778346 -0.283552 0.375558 -2.201569 -9.977449 0.057570 0.267045 0.031829
-21.680567 88.044595 -1.364814 -144.125437 -9.653064 -0.804188 3.930450 3.101929 0.432331 2.216982 1.766318 0.311467 2.773054 2.205909 0.400047 2.216982 1.766318 0.311467 -4.797290 26.737445 2.835465 -5.949768 3.832427 4.227920 -2.146890 3.768718 -2.386042 -7.274379 -1.154213 88.928474 1.930460 -0.924925 0.750725 -2.316844 -1.609940 2.636465 -4.220687 2.857117 -1.845079 2.695177 -1.986543 -87.050881 0.509841 -3.142311 -0.113263 -3.215289 2.727888 2.959577 -6.586813 13.588802 -10.127231 0.048770 2.368579 -0.659744 1.657441 -6.462173 7.258206 0.014907 -0.202322 0.002347 22.024046 14.165600 13.072966 13.191890 -2.773457 -0.284642 0.372525 -2.206087 -9.978886 0.057191 0.268009 0.032716
